<svg width="100" height="100" viewBox="0 0 100 100" fill="none" xmlns="http://www.w3.org/2000/svg">
<circle cx="50" cy="50" r="50" fill="#E6E6E6"/>
<path d="M67.192 74.96C65.9547 74.96 64.7813 74.6187 63.672 73.936C62.5627 73.2533 61.4747 72.1867 60.408 70.736C59.384 69.2427 58.3173 67.3653 57.208 65.104C55.8427 62.288 54.4347 59.7707 52.984 57.552C51.5333 55.3333 49.9333 53.4133 48.184 51.792H41.72V72.528L45.624 73.36V74H30.456V73.36L34.36 72.528V30.096L30.456 29.328V28.688H52.792C56.0773 28.688 58.8507 29.0933 61.112 29.904C63.3733 30.672 65.08 31.8667 66.232 33.488C67.384 35.0667 67.96 37.0507 67.96 39.44C67.96 41.6587 67.2987 43.6213 65.976 45.328C64.6533 46.992 62.712 48.336 60.152 49.36C57.592 50.3413 54.456 50.96 50.744 51.216V51.664C52.1947 51.792 53.5173 52.0693 54.712 52.496C55.9493 52.9227 57.0587 53.52 58.04 54.288C59.064 55.056 59.9813 55.9947 60.792 57.104C61.6027 58.2133 62.3493 59.5147 63.032 61.008C64.184 63.6533 65.1867 65.8293 66.04 67.536C66.936 69.2427 67.7253 70.5227 68.408 71.376C69.0907 72.2293 69.688 72.72 70.2 72.848C70.6693 73.0187 71.1387 73.04 71.608 72.912V73.552C71.1813 73.8933 70.6907 74.1707 70.136 74.384C69.624 74.5973 69.112 74.7467 68.6 74.832C68.088 74.9173 67.6187 74.96 67.192 74.96ZM47.544 50.512C49.592 50.512 51.4267 50.256 53.048 49.744C54.712 49.232 56.12 48.5067 57.272 47.568C58.424 46.6293 59.2987 45.4987 59.896 44.176C60.536 42.8107 60.856 41.296 60.856 39.632C60.856 37.456 60.4293 35.6427 59.576 34.192C58.7653 32.6987 57.5493 31.568 55.928 30.8C54.3493 30.032 52.4293 29.648 50.168 29.648C48.3333 29.648 46.7333 29.6907 45.368 29.776C44.0027 29.8613 42.7867 29.9893 41.72 30.16V50.128C42.36 50.256 43.1067 50.3627 43.96 50.448C44.8133 50.4907 46.008 50.512 47.544 50.512Z" fill="black"/>
</svg>
