<svg width="121" height="117" viewBox="0 0 121 117" fill="none" xmlns="http://www.w3.org/2000/svg">
<path fill-rule="evenodd" clip-rule="evenodd" d="M31.9792 71.3892C27.4014 64.6871 22.0269 57.4882 23.9389 50.0324C25.7547 42.9517 34.5131 41.6353 40.6343 37.6384C49.0606 32.1365 55.0336 20.7265 65.3718 22.979C77.0297 25.5191 85.101 36.932 88.7322 48.1182C92.5208 59.7892 91.879 72.715 84.474 81.8244C77.2652 90.6923 64.6865 94.6658 52.8123 92.3054C42.7649 90.3082 37.7789 79.8805 31.9792 71.3892Z" stroke="black"/>
<path fill-rule="evenodd" clip-rule="evenodd" d="M22.3519 74.3326C16.3685 65.5737 9.34394 56.1657 11.8388 46.4246C14.2081 37.1737 25.65 35.457 33.6456 30.2371C44.6518 23.0515 52.4505 8.1455 65.9579 11.0926C81.1893 14.4159 91.7389 29.3312 96.4875 43.9484C101.442 59.1991 100.609 76.0878 90.9382 87.9872C81.5239 99.5713 65.092 104.758 49.578 101.67C36.4507 99.0562 29.9324 85.4295 22.3519 74.3326Z" stroke="black"/>
</svg>
