<svg width="354" height="500" viewBox="0 0 354 500" fill="none" xmlns="http://www.w3.org/2000/svg">
<path d="M0 31.1764C25.5208 29.4162 92.0236 39.9761 109.868 101.653C132.174 178.749 241.789 175.507 288 212.676C311 231.176 310.5 253.676 310.5 253.676" stroke="black"/>
<path d="M0 31.1764C25.5208 29.4162 92.0236 39.9761 109.868 101.653C132.174 178.749 241.789 175.507 288 212.676C311 231.176 310.5 253.676 310.5 253.676" stroke="black"/>
<path d="M0.5 468.676C26.0208 470.437 92.0236 458.876 109.868 397.2C132.174 320.104 241.789 323.346 288 286.176C311 267.676 310.5 251.176 310.5 251.176" stroke="black"/>
<path d="M0.5 468.676C26.0208 470.437 92.0236 458.876 109.868 397.2C132.174 320.104 241.789 323.346 288 286.176C311 267.676 310.5 251.176 310.5 251.176" stroke="black"/>
<path d="M0 1.20053C29.0139 -0.800562 104.619 11.2047 124.906 81.3231C150.265 168.971 274.884 165.286 327.419 207.542C353.567 228.575 352.999 254.154 352.999 254.154" stroke="black"/>
<path d="M0 1.20053C29.0139 -0.800562 104.619 11.2047 124.906 81.3231C150.265 168.971 274.884 165.286 327.419 207.542C353.567 228.575 352.999 254.154 352.999 254.154" stroke="black"/>
<path d="M0.568726 498.582C29.5827 500.584 104.619 487.441 124.906 417.322C150.265 329.674 274.884 333.36 327.419 291.103C353.567 270.071 352.999 251.313 352.999 251.313" stroke="black"/>
<path d="M0.568726 498.582C29.5827 500.584 104.619 487.441 124.906 417.322C150.265 329.674 274.884 333.36 327.419 291.103C353.567 270.071 352.999 251.313 352.999 251.313" stroke="black"/>
</svg>
